<svg width="62" height="70" viewBox="0 0 62 70" fill="none" xmlns="http://www.w3.org/2000/svg">
<path d="M0 3L0 67C0 68.6569 1.35564 70 3.02791 70H58.9721C60.6444 70 62 68.6569 62 67L62 3C62 1.34315 60.6444 0 58.9721 0H3.02791C1.35564 0 0 1.34315 0 3Z" fill="url(#paint0_linear_157_45)"/>
<path d="M18.7443 55.4798C18.7443 56.3972 19.5008 57.1428 20.4353 57.1428C21.3692 57.1428 22.1263 56.3972 22.1263 55.4798C22.1263 54.5596 21.3692 53.8167 20.4353 53.8167C19.5011 53.8165 18.7443 54.5596 18.7443 55.4798Z" fill="white"/>
<path d="M18.7443 50.4505C18.7443 51.3669 19.5008 52.1133 20.4353 52.1133C21.3692 52.1133 22.1263 51.3669 22.1263 50.4505C22.1263 49.5306 21.3692 48.7858 20.4353 48.7858C19.5011 48.7858 18.7443 49.5306 18.7443 50.4505Z" fill="white"/>
<path d="M23.8617 50.4591C23.8617 51.3754 24.6187 52.1218 25.5548 52.1218C26.4882 52.1218 27.2452 51.3754 27.2452 50.4591C27.2452 49.5392 26.4882 48.7944 25.5548 48.7944C24.6187 48.7944 23.8617 49.5392 23.8617 50.4591Z" fill="white"/>
<path d="M23.8617 45.4177C23.8617 46.3365 24.6187 47.0835 25.5548 47.0835C26.4882 47.0835 27.2452 46.3365 27.2452 45.4177C27.2452 44.5008 26.4882 43.7547 25.5548 43.7547C24.6187 43.7547 23.8617 44.5008 23.8617 45.4177Z" fill="white"/>
<path d="M28.9823 45.4177C28.9823 46.3365 29.7393 47.0835 30.6738 47.0835C31.6072 47.0835 32.3642 46.3365 32.3642 45.4177C32.3642 44.5008 31.6072 43.7547 30.6738 43.7547C29.7393 43.7547 28.9823 44.5008 28.9823 45.4177Z" fill="white"/>
<path d="M28.9823 40.3901C28.9823 41.31 29.7393 42.054 30.6738 42.054C31.6072 42.054 32.3642 41.31 32.3642 40.3901C32.3642 39.4735 31.6072 38.7276 30.6738 38.7276C29.7393 38.7273 28.9823 39.4735 28.9823 40.3901Z" fill="white"/>
<path d="M34.0838 40.3901C34.0838 41.31 34.8408 42.054 35.7742 42.054C36.7098 42.054 37.4674 41.31 37.4674 40.3901C37.4674 39.4735 36.7098 38.7276 35.7742 38.7276C34.8411 38.7273 34.0838 39.4735 34.0838 40.3901Z" fill="white"/>
<path d="M34.0838 35.3608C34.0838 36.281 34.8408 37.0244 35.7742 37.0244C36.7098 37.0244 37.4674 36.281 37.4674 35.3608C37.4674 34.4407 36.7098 33.6972 35.7742 33.6972C34.8411 33.6972 34.0838 34.4407 34.0838 35.3608Z" fill="white"/>
<path d="M39.2039 35.3608C39.2039 36.281 39.9615 37.0244 40.8959 37.0244C41.8299 37.0244 42.5863 36.281 42.5863 35.3608C42.5863 34.4407 41.8299 33.6972 40.8959 33.6972C39.9615 33.6972 39.2039 34.4407 39.2039 35.3608Z" fill="white"/>
<path d="M28.9823 30.3238C28.9823 31.2405 29.7393 31.9863 30.6738 31.9863C31.6072 31.9863 32.3642 31.2405 32.3642 30.3238C32.3642 29.4039 31.6072 28.66 30.6738 28.66C29.7393 28.66 28.9823 29.4039 28.9823 30.3238Z" fill="white"/>
<path d="M34.0838 30.3238C34.0838 31.2405 34.8408 31.9863 35.7742 31.9863C36.7098 31.9863 37.4674 31.2405 37.4674 30.3238C37.4674 29.4039 36.7098 28.66 35.7742 28.66C34.8411 28.66 34.0838 29.4039 34.0838 30.3238Z" fill="white"/>
<path d="M23.8617 25.3015C23.8617 26.2184 24.6187 26.9651 25.5548 26.9651C26.4882 26.9651 27.2452 26.2184 27.2452 25.3015C27.2452 24.3827 26.4882 23.6357 25.5548 23.6357C24.6187 23.6355 23.8617 24.3827 23.8617 25.3015Z" fill="white"/>
<path d="M28.9823 25.3015C28.9823 26.2184 29.7393 26.9651 30.6738 26.9651C31.6072 26.9651 32.3642 26.2184 32.3642 25.3015C32.3642 24.3827 31.6072 23.6357 30.6738 23.6357C29.7393 23.6355 28.9823 24.3827 28.9823 25.3015Z" fill="white"/>
<path d="M18.7443 20.2623C18.7443 21.1825 19.5008 21.927 20.4353 21.927C21.3692 21.927 22.1263 21.1825 22.1263 20.2623C22.1263 19.346 21.3692 18.5996 20.4353 18.5996C19.5011 18.5996 18.7443 19.346 18.7443 20.2623Z" fill="white"/>
<path d="M23.8617 20.2623C23.8617 21.1825 24.6187 21.927 25.5548 21.927C26.4882 21.927 27.2452 21.1825 27.2452 20.2623C27.2452 19.346 26.4882 18.5996 25.5548 18.5996C24.6187 18.5996 23.8617 19.346 23.8617 20.2623Z" fill="white"/>
<path d="M18.7443 15.2342C18.7443 16.1541 19.5008 16.897 20.4353 16.897C21.3692 16.897 22.1263 16.1538 22.1263 15.2342C22.1263 14.3138 21.3692 13.5709 20.4353 13.5709C19.5011 13.5709 18.7443 14.314 18.7443 15.2342Z" fill="white"/>
<defs>
<linearGradient id="paint0_linear_157_45" x1="0.43269" y1="-63.5" x2="103.163" y2="28.0429" gradientUnits="userSpaceOnUse">
<stop stop-color="#B8995E"/>
<stop offset="0.395528" stop-color="#F6EEAB"/>
<stop offset="0.885412" stop-color="#C19A5F"/>
</linearGradient>
</defs>
</svg>
