<svg width="72" height="78" viewBox="0 0 72 78" fill="none" xmlns="http://www.w3.org/2000/svg">
<g filter="url(#filter0_diii_160_641)">
<rect x="13" y="54" width="52" height="45.6327" rx="3" transform="rotate(-90 13 54)" fill="url(#paint0_linear_160_641)"/>
</g>
<path d="M28.0005 40.9344C28.0005 41.5223 28.4807 42 29.074 42C29.6669 42 30.1475 41.5223 30.1475 40.9344C30.1475 40.3448 29.6669 39.8688 29.074 39.8688C28.4809 39.8686 28.0005 40.3448 28.0005 40.9344Z" fill="white"/>
<path d="M28.0005 37.7119C28.0005 38.2991 28.4807 38.7773 29.074 38.7773C29.6669 38.7773 30.1475 38.2991 30.1475 37.7119C30.1475 37.1225 29.6669 36.6453 29.074 36.6453C28.4809 36.6453 28.0005 37.1225 28.0005 37.7119Z" fill="white"/>
<path d="M31.2485 37.7173C31.2485 38.3044 31.729 38.7827 32.3233 38.7827C32.9159 38.7827 33.3965 38.3044 33.3965 37.7173C33.3965 37.1279 32.9159 36.6507 32.3233 36.6507C31.729 36.6507 31.2485 37.1279 31.2485 37.7173Z" fill="white"/>
<path d="M31.2485 34.4871C31.2485 35.0758 31.729 35.5544 32.3233 35.5544C32.9159 35.5544 33.3965 35.0758 33.3965 34.4871C33.3965 33.8996 32.9159 33.4215 32.3233 33.4215C31.729 33.4215 31.2485 33.8996 31.2485 34.4871Z" fill="white"/>
<path d="M34.4995 34.4871C34.4995 35.0758 34.9801 35.5544 35.5733 35.5544C36.1659 35.5544 36.6465 35.0758 36.6465 34.4871C36.6465 33.8996 36.1659 33.4215 35.5733 33.4215C34.9801 33.4215 34.4995 33.8996 34.4995 34.4871Z" fill="white"/>
<path d="M34.4995 31.2657C34.4995 31.8551 34.9801 32.3318 35.5733 32.3318C36.1659 32.3318 36.6465 31.8551 36.6465 31.2657C36.6465 30.6783 36.1659 30.2004 35.5733 30.2004C34.9801 30.2002 34.4995 30.6783 34.4995 31.2657Z" fill="white"/>
<path d="M37.7377 31.2657C37.7377 31.8551 38.2183 32.3318 38.8108 32.3318C39.4048 32.3318 39.8857 31.8551 39.8857 31.2657C39.8857 30.6783 39.4048 30.2004 38.8108 30.2004C38.2185 30.2002 37.7377 30.6783 37.7377 31.2657Z" fill="white"/>
<path d="M37.7377 28.0432C37.7377 28.6328 38.2183 29.1091 38.8108 29.1091C39.4048 29.1091 39.8857 28.6328 39.8857 28.0432C39.8857 27.4536 39.4048 26.9772 38.8108 26.9772C38.2185 26.9772 37.7377 27.4536 37.7377 28.0432Z" fill="white"/>
<path d="M40.9884 28.0432C40.9884 28.6328 41.4693 29.1091 42.0626 29.1091C42.6555 29.1091 43.1357 28.6328 43.1357 28.0432C43.1357 27.4536 42.6555 26.9772 42.0626 26.9772C41.4693 26.9772 40.9884 27.4536 40.9884 28.0432Z" fill="white"/>
<path d="M34.4995 24.8156C34.4995 25.4029 34.9801 25.8809 35.5733 25.8809C36.1659 25.8809 36.6465 25.4029 36.6465 24.8156C36.6465 24.2262 36.1659 23.7495 35.5733 23.7495C34.9801 23.7495 34.4995 24.2262 34.4995 24.8156Z" fill="white"/>
<path d="M37.7377 24.8156C37.7377 25.4029 38.2183 25.8809 38.8108 25.8809C39.4048 25.8809 39.8857 25.4029 39.8857 24.8156C39.8857 24.2262 39.4048 23.7495 38.8108 23.7495C38.2185 23.7495 37.7377 24.2262 37.7377 24.8156Z" fill="white"/>
<path d="M31.2485 21.5976C31.2485 22.1851 31.729 22.6636 32.3233 22.6636C32.9159 22.6636 33.3965 22.1851 33.3965 21.5976C33.3965 21.0089 32.9159 20.5303 32.3233 20.5303C31.729 20.5301 31.2485 21.0089 31.2485 21.5976Z" fill="white"/>
<path d="M34.4995 21.5976C34.4995 22.1851 34.9801 22.6636 35.5733 22.6636C36.1659 22.6636 36.6465 22.1851 36.6465 21.5976C36.6465 21.0089 36.1659 20.5303 35.5733 20.5303C34.9801 20.5301 34.4995 21.0089 34.4995 21.5976Z" fill="white"/>
<path d="M28.0005 18.3687C28.0005 18.9583 28.4807 19.4353 29.074 19.4353C29.6669 19.4353 30.1475 18.9583 30.1475 18.3687C30.1475 17.7815 29.6669 17.3032 29.074 17.3032C28.4809 17.3032 28.0005 17.7815 28.0005 18.3687Z" fill="white"/>
<path d="M31.2485 18.3687C31.2485 18.9583 31.729 19.4353 32.3233 19.4353C32.9159 19.4353 33.3965 18.9583 33.3965 18.3687C33.3965 17.7815 32.9159 17.3032 32.3233 17.3032C31.729 17.3032 31.2485 17.7815 31.2485 18.3687Z" fill="white"/>
<path d="M28.0005 15.147C28.0005 15.7364 28.4807 16.2124 29.074 16.2124C29.6669 16.2124 30.1475 15.7362 30.1475 15.147C30.1475 14.5572 29.6669 14.0812 29.074 14.0812C28.4809 14.0812 28.0005 14.5574 28.0005 15.147Z" fill="white"/>
<defs>
<filter id="filter0_diii_160_641" x="0" y="0" width="71.6328" height="78" filterUnits="userSpaceOnUse" color-interpolation-filters="sRGB">
<feFlood flood-opacity="0" result="BackgroundImageFix"/>
<feColorMatrix in="SourceAlpha" type="matrix" values="0 0 0 0 0 0 0 0 0 0 0 0 0 0 0 0 0 0 127 0" result="hardAlpha"/>
<feMorphology radius="5" operator="erode" in="SourceAlpha" result="effect1_dropShadow_160_641"/>
<feOffset dy="11"/>
<feGaussianBlur stdDeviation="9"/>
<feComposite in2="hardAlpha" operator="out"/>
<feColorMatrix type="matrix" values="0 0 0 0 0 0 0 0 0 0 0 0 0 0 0 0 0 0 0.23 0"/>
<feBlend mode="normal" in2="BackgroundImageFix" result="effect1_dropShadow_160_641"/>
<feBlend mode="normal" in="SourceGraphic" in2="effect1_dropShadow_160_641" result="shape"/>
<feColorMatrix in="SourceAlpha" type="matrix" values="0 0 0 0 0 0 0 0 0 0 0 0 0 0 0 0 0 0 127 0" result="hardAlpha"/>
<feOffset dx="8.74626" dy="8.74626"/>
<feGaussianBlur stdDeviation="15.6183"/>
<feComposite in2="hardAlpha" operator="arithmetic" k2="-1" k3="1"/>
<feColorMatrix type="matrix" values="0 0 0 0 1 0 0 0 0 1 0 0 0 0 1 0 0 0 0.25 0"/>
<feBlend mode="normal" in2="shape" result="effect2_innerShadow_160_641"/>
<feColorMatrix in="SourceAlpha" type="matrix" values="0 0 0 0 0 0 0 0 0 0 0 0 0 0 0 0 0 0 127 0" result="hardAlpha"/>
<feOffset dy="-1.24947"/>
<feGaussianBlur stdDeviation="2.49893"/>
<feComposite in2="hardAlpha" operator="arithmetic" k2="-1" k3="1"/>
<feColorMatrix type="matrix" values="0 0 0 0 1 0 0 0 0 1 0 0 0 0 1 0 0 0 0.25 0"/>
<feBlend mode="normal" in2="effect2_innerShadow_160_641" result="effect3_innerShadow_160_641"/>
<feColorMatrix in="SourceAlpha" type="matrix" values="0 0 0 0 0 0 0 0 0 0 0 0 0 0 0 0 0 0 127 0" result="hardAlpha"/>
<feOffset dy="2"/>
<feGaussianBlur stdDeviation="1.5"/>
<feComposite in2="hardAlpha" operator="arithmetic" k2="-1" k3="1"/>
<feColorMatrix type="matrix" values="0 0 0 0 1 0 0 0 0 1 0 0 0 0 1 0 0 0 0.4 0"/>
<feBlend mode="normal" in2="effect3_innerShadow_160_641" result="effect4_innerShadow_160_641"/>
</filter>
<linearGradient id="paint0_linear_160_641" x1="112.171" y1="54.3185" x2="44.8693" y2="130.548" gradientUnits="userSpaceOnUse">
<stop stop-color="#B8995E"/>
<stop offset="0.395528" stop-color="#F6EEAB"/>
<stop offset="0.885412" stop-color="#C19A5F"/>
</linearGradient>
</defs>
</svg>
