<svg width="101" height="70" viewBox="0 0 101 70" fill="none" xmlns="http://www.w3.org/2000/svg">
<path d="M0.5 15C0.5 6.99187 6.99187 0.5 15 0.5H68.1085C71.8929 0.5 75.5128 1.96355 78.1404 4.66947C83.4727 10.1607 92.4239 19.7848 97.241 27.2167C98.444 29.0726 99.3765 30.7729 99.9317 32.2246C100.495 33.6972 100.633 34.8204 100.381 35.5775C100.153 36.2611 99.5566 36.7748 98.2433 36.9217C96.9062 37.0711 94.9227 36.8196 92.1381 36.0194C84.867 33.9302 80.0017 35.1357 76.8685 38.2491C73.7764 41.3216 72.491 46.1424 72.0918 51.0259C71.3128 60.5556 64.5015 69.5 55.1444 69.5H15C6.99188 69.5 0.5 63.0081 0.5 55V15Z" fill="url(#paint0_radial_47_44)" stroke="#E6E6E6"/>
<path d="M37.6719 7L36.6848 10.0378L38.2037 10.5313L37.6719 7Z" fill="#FFD21C"/>
<path d="M37.6719 7L38.6589 10.0378L37.14 10.5313L37.6719 7Z" fill="#FFD21C"/>
<path d="M40.7129 9.20703H37.5188V10.8041L40.7129 9.20703Z" fill="#FFD21C"/>
<path d="M40.7129 9.20703L38.1288 11.0845L37.1901 9.79243L40.7129 9.20703Z" fill="#FFD21C"/>
<path d="M39.5513 12.7781L38.5642 9.74032L37.0454 10.2338L39.5513 12.7781Z" fill="#FFD21C"/>
<path d="M39.5513 12.7781L36.9672 10.9006L37.9059 9.6086L39.5513 12.7781Z" fill="#FFD21C"/>
<path d="M34.6338 9.20703H37.8279V10.8041L34.6338 9.20703Z" fill="#FFD21C"/>
<path d="M34.6338 9.20703L37.2179 11.0845L38.1566 9.79243L34.6338 9.20703Z" fill="#FFD21C"/>
<path d="M35.7954 12.7781L36.7824 9.74032L38.3013 10.2338L35.7954 12.7781Z" fill="#FFD21C"/>
<path d="M35.7954 12.7781L38.3795 10.9006L37.4408 9.6086L35.7954 12.7781Z" fill="#FFD21C"/>
<path d="M37.6719 45.3291L36.6848 48.3669L38.2037 48.8604L37.6719 45.3291Z" fill="#FFD21C"/>
<path d="M37.6719 45.3291L38.6589 48.3669L37.14 48.8604L37.6719 45.3291Z" fill="#FFD21C"/>
<path d="M40.7129 47.5361H37.5188V49.1332L40.7129 47.5361Z" fill="#FFD21C"/>
<path d="M40.7129 47.5361L38.1288 49.4136L37.1901 48.1215L40.7129 47.5361Z" fill="#FFD21C"/>
<path d="M39.5513 51.1072L38.5642 48.0694L37.0454 48.5629L39.5513 51.1072Z" fill="#FFD21C"/>
<path d="M39.5513 51.1072L36.9672 49.2297L37.9059 47.9377L39.5513 51.1072Z" fill="#FFD21C"/>
<path d="M34.6338 47.5361H37.8279V49.1332L34.6338 47.5361Z" fill="#FFD21C"/>
<path d="M34.6338 47.5361L37.2179 49.4136L38.1566 48.1215L34.6338 47.5361Z" fill="#FFD21C"/>
<path d="M35.7954 51.1072L36.7824 48.0694L38.3013 48.5629L35.7954 51.1072Z" fill="#FFD21C"/>
<path d="M35.7954 51.1072L38.3795 49.2297L37.4408 47.9377L35.7954 51.1072Z" fill="#FFD21C"/>
<path d="M18.5088 26.1646L17.5218 29.2023L19.0406 29.6958L18.5088 26.1646Z" fill="#FFD21C"/>
<path d="M18.5088 26.1646L19.4958 29.2023L17.9769 29.6958L18.5088 26.1646Z" fill="#FFD21C"/>
<path d="M21.5464 28.3716H18.3523V29.9686L21.5464 28.3716Z" fill="#FFD21C"/>
<path d="M21.5464 28.3716L18.9623 30.249L18.0236 28.957L21.5464 28.3716Z" fill="#FFD21C"/>
<path d="M20.3877 31.9426L19.4007 28.9049L17.8818 29.3984L20.3877 31.9426Z" fill="#FFD21C"/>
<path d="M20.3877 31.9426L17.8036 30.0652L18.7423 28.7732L20.3877 31.9426Z" fill="#FFD21C"/>
<path d="M15.4697 28.3716H18.6638V29.9686L15.4697 28.3716Z" fill="#FFD21C"/>
<path d="M15.4697 28.3716L18.0538 30.249L18.9925 28.957L15.4697 28.3716Z" fill="#FFD21C"/>
<path d="M16.6304 31.9426L17.6174 28.9049L19.1363 29.3984L16.6304 31.9426Z" fill="#FFD21C"/>
<path d="M16.6304 31.9426L19.2144 30.0652L18.2757 28.7732L16.6304 31.9426Z" fill="#FFD21C"/>
<path d="M26.2129 15.3457L28.797 13.4683L27.8582 12.1762L26.2129 15.3457Z" fill="#FFD21C"/>
<path d="M26.2129 15.3457L27.1999 12.3079L28.7188 12.8015L26.2129 15.3457Z" fill="#FFD21C"/>
<path d="M25.0527 11.7751L27.6368 13.6526L28.5755 12.3605L25.0527 11.7751Z" fill="#FFD21C"/>
<path d="M25.0527 11.7751L28.2468 11.7751L28.2468 13.3722L25.0527 11.7751Z" fill="#FFD21C"/>
<path d="M28.0889 9.56763L27.1018 12.6054L28.6207 13.0989L28.0889 9.56763Z" fill="#FFD21C"/>
<path d="M28.0889 9.56763L29.0759 12.6054L27.557 13.0989L28.0889 9.56763Z" fill="#FFD21C"/>
<path d="M29.9673 15.3457L27.3832 13.4683L28.3219 12.1762L29.9673 15.3457Z" fill="#FFD21C"/>
<path d="M29.9673 15.3457L28.9803 12.3079L27.4614 12.8015L29.9673 15.3457Z" fill="#FFD21C"/>
<path d="M31.127 11.7747L28.5429 13.6521L27.6042 12.3601L31.127 11.7747Z" fill="#FFD21C"/>
<path d="M31.127 11.7747L27.9329 11.7747L27.9329 13.3717L31.127 11.7747Z" fill="#FFD21C"/>
<path d="M22.9541 22.3606L21.9671 19.3228L20.4482 19.8163L22.9541 22.3606Z" fill="#FFD21C"/>
<path d="M22.9541 22.3606L20.37 20.4832L21.3087 19.1911L22.9541 22.3606Z" fill="#FFD21C"/>
<path d="M19.1982 22.3604L21.7823 20.4829L20.8436 19.1909L19.1982 22.3604Z" fill="#FFD21C"/>
<path d="M19.1982 22.3604L20.1853 19.3226L21.7042 19.8161L19.1982 22.3604Z" fill="#FFD21C"/>
<path d="M18.0381 18.7893L20.6222 20.6667L21.5609 19.3747L18.0381 18.7893Z" fill="#FFD21C"/>
<path d="M18.0381 18.7893L21.2322 18.7893L21.2322 20.3864L18.0381 18.7893Z" fill="#FFD21C"/>
<path d="M24.1123 18.7896L21.5282 20.667L20.5895 19.375L24.1123 18.7896Z" fill="#FFD21C"/>
<path d="M24.1123 18.7896L20.9182 18.7896L20.9182 20.3866L24.1123 18.7896Z" fill="#FFD21C"/>
<path d="M21.0752 16.5825L22.0622 19.6203L20.5433 20.1138L21.0752 16.5825Z" fill="#FFD21C"/>
<path d="M21.0752 16.5825L20.0882 19.6203L21.607 20.1138L21.0752 16.5825Z" fill="#FFD21C"/>
<path d="M24.1172 37.9539H20.9231V39.5509L24.1172 37.9539Z" fill="#FFD21C"/>
<path d="M24.1172 37.9539L21.5331 39.8313L20.5944 38.5393L24.1172 37.9539Z" fill="#FFD21C"/>
<path d="M22.9541 41.5254L21.9671 38.4876L20.4482 38.9811L22.9541 41.5254Z" fill="#FFD21C"/>
<path d="M22.9541 41.5254L20.37 39.6479L21.3087 38.3559L22.9541 41.5254Z" fill="#FFD21C"/>
<path d="M19.1982 41.5254L21.7823 39.648L20.8436 38.3559L19.1982 41.5254Z" fill="#FFD21C"/>
<path d="M19.1982 41.5254L20.1853 38.4876L21.7042 38.9811L19.1982 41.5254Z" fill="#FFD21C"/>
<path d="M21.0811 35.7468L22.0681 38.7846L20.5492 39.2781L21.0811 35.7468Z" fill="#FFD21C"/>
<path d="M21.0811 35.7468L20.094 38.7846L21.6129 39.2781L21.0811 35.7468Z" fill="#FFD21C"/>
<path d="M18.043 37.9539L21.2371 37.9539L21.2371 39.5509L18.043 37.9539Z" fill="#FFD21C"/>
<path d="M18.043 37.9539L20.627 39.8313L21.5658 38.5393L18.043 37.9539Z" fill="#FFD21C"/>
<path d="M31.1338 44.9685H27.9397V46.5656L31.1338 44.9685Z" fill="#FFD21C"/>
<path d="M31.1338 44.9685L28.5497 46.8459L27.611 45.5539L31.1338 44.9685Z" fill="#FFD21C"/>
<path d="M29.9741 48.5398L28.9871 45.502L27.4682 45.9955L29.9741 48.5398Z" fill="#FFD21C"/>
<path d="M29.9741 48.5398L27.39 46.6624L28.3288 45.3703L29.9741 48.5398Z" fill="#FFD21C"/>
<path d="M26.2202 48.5398L28.8043 46.6624L27.8656 45.3703L26.2202 48.5398Z" fill="#FFD21C"/>
<path d="M26.2202 48.5398L27.2072 45.502L28.7261 45.9955L26.2202 48.5398Z" fill="#FFD21C"/>
<path d="M28.0967 42.7617L29.0837 45.7995L27.5648 46.293L28.0967 42.7617Z" fill="#FFD21C"/>
<path d="M28.0967 42.7617L27.1097 45.7995L28.6285 46.293L28.0967 42.7617Z" fill="#FFD21C"/>
<path d="M25.0537 44.9685L28.2478 44.9685L28.2478 46.5656L25.0537 44.9685Z" fill="#FFD21C"/>
<path d="M25.0537 44.9685L27.6378 46.8459L28.5765 45.5539L25.0537 44.9685Z" fill="#FFD21C"/>
<path d="M56.8428 26.1646L57.8298 29.2023L56.3109 29.6958L56.8428 26.1646Z" fill="#FFD21C"/>
<path d="M56.8428 26.1646L55.8557 29.2023L57.3746 29.6958L56.8428 26.1646Z" fill="#FFD21C"/>
<path d="M53.7979 28.3716H56.9919V29.9686L53.7979 28.3716Z" fill="#FFD21C"/>
<path d="M53.7979 28.3716L56.3819 30.249L57.3206 28.957L53.7979 28.3716Z" fill="#FFD21C"/>
<path d="M54.959 31.9426L55.946 28.9049L57.4649 29.3984L54.959 31.9426Z" fill="#FFD21C"/>
<path d="M54.959 31.9426L57.5431 30.0652L56.6043 28.7732L54.959 31.9426Z" fill="#FFD21C"/>
<path d="M59.8735 28.3716H56.6794V29.9686L59.8735 28.3716Z" fill="#FFD21C"/>
<path d="M59.8735 28.3716L57.2895 30.249L56.3507 28.957L59.8735 28.3716Z" fill="#FFD21C"/>
<path d="M58.7148 31.9426L57.7278 28.9049L56.2089 29.3984L58.7148 31.9426Z" fill="#FFD21C"/>
<path d="M58.7148 31.9426L56.1308 30.0652L57.0695 28.7732L58.7148 31.9426Z" fill="#FFD21C"/>
<path d="M49.1328 15.3457L46.5487 13.4683L47.4875 12.1762L49.1328 15.3457Z" fill="#FFD21C"/>
<path d="M49.1328 15.3457L48.1458 12.3079L46.6269 12.8015L49.1328 15.3457Z" fill="#FFD21C"/>
<path d="M50.2915 11.7747L47.7074 13.6521L46.7687 12.3601L50.2915 11.7747Z" fill="#FFD21C"/>
<path d="M50.2915 11.7747L47.0974 11.7747L47.0974 13.3717L50.2915 11.7747Z" fill="#FFD21C"/>
<path d="M47.2578 9.56738L48.2448 12.6051L46.726 13.0987L47.2578 9.56738Z" fill="#FFD21C"/>
<path d="M47.2578 9.56738L46.2708 12.6051L47.7897 13.0987L47.2578 9.56738Z" fill="#FFD21C"/>
<path d="M45.377 15.3459L47.961 13.4685L47.0223 12.1765L45.377 15.3459Z" fill="#FFD21C"/>
<path d="M45.377 15.3459L46.364 12.3082L47.8829 12.8017L45.377 15.3459Z" fill="#FFD21C"/>
<path d="M44.2197 11.7749L46.8038 13.6523L47.7425 12.3603L44.2197 11.7749Z" fill="#FFD21C"/>
<path d="M44.2197 11.7749L47.4138 11.7749L47.4138 13.3719L44.2197 11.7749Z" fill="#FFD21C"/>
<path d="M52.3906 22.3604L53.3777 19.3226L54.8965 19.8161L52.3906 22.3604Z" fill="#FFD21C"/>
<path d="M52.3906 22.3604L54.9747 20.4829L54.036 19.1909L52.3906 22.3604Z" fill="#FFD21C"/>
<path d="M56.147 22.3604L53.5629 20.4829L54.5016 19.1909L56.147 22.3604Z" fill="#FFD21C"/>
<path d="M56.147 22.3604L55.1599 19.3226L53.6411 19.8161L56.147 22.3604Z" fill="#FFD21C"/>
<path d="M57.3066 18.7893L54.7226 20.6667L53.7838 19.3747L57.3066 18.7893Z" fill="#FFD21C"/>
<path d="M57.3066 18.7893L54.1126 18.7893L54.1126 20.3864L57.3066 18.7893Z" fill="#FFD21C"/>
<path d="M51.2324 18.7893L53.8165 20.6667L54.7552 19.3747L51.2324 18.7893Z" fill="#FFD21C"/>
<path d="M51.2324 18.7893L54.4265 18.7893L54.4265 20.3864L51.2324 18.7893Z" fill="#FFD21C"/>
<path d="M54.2695 16.5823L53.2825 19.62L54.8014 20.1135L54.2695 16.5823Z" fill="#FFD21C"/>
<path d="M54.2695 16.5823L55.2566 19.62L53.7377 20.1135L54.2695 16.5823Z" fill="#FFD21C"/>
<path d="M51.2319 37.9539H54.426V39.5509L51.2319 37.9539Z" fill="#FFD21C"/>
<path d="M51.2319 37.9539L53.816 39.8313L54.7547 38.5393L51.2319 37.9539Z" fill="#FFD21C"/>
<path d="M52.3906 41.5249L53.3777 38.4871L54.8965 38.9807L52.3906 41.5249Z" fill="#FFD21C"/>
<path d="M52.3906 41.5249L54.9747 39.6475L54.036 38.3554L52.3906 41.5249Z" fill="#FFD21C"/>
<path d="M56.1479 41.5249L53.5639 39.6475L54.5026 38.3554L56.1479 41.5249Z" fill="#FFD21C"/>
<path d="M56.1479 41.5249L55.1609 38.4871L53.642 38.9807L56.1479 41.5249Z" fill="#FFD21C"/>
<path d="M54.27 35.7468L53.283 38.7846L54.8019 39.2781L54.27 35.7468Z" fill="#FFD21C"/>
<path d="M54.27 35.7468L55.257 38.7846L53.7382 39.2781L54.27 35.7468Z" fill="#FFD21C"/>
<path d="M57.312 37.9536L54.1179 37.9536L54.1179 39.5507L57.312 37.9536Z" fill="#FFD21C"/>
<path d="M57.312 37.9536L54.7279 39.8311L53.7892 38.539L57.312 37.9536Z" fill="#FFD21C"/>
<path d="M44.2178 44.9683H47.4119V46.5653L44.2178 44.9683Z" fill="#FFD21C"/>
<path d="M44.2178 44.9683L46.8018 46.8457L47.7406 45.5537L44.2178 44.9683Z" fill="#FFD21C"/>
<path d="M45.3813 48.5396L46.3684 45.5018L47.8873 45.9953L45.3813 48.5396Z" fill="#FFD21C"/>
<path d="M45.3813 48.5396L47.9654 46.6621L47.0267 45.3701L45.3813 48.5396Z" fill="#FFD21C"/>
<path d="M49.1362 48.5396L46.5522 46.6621L47.4909 45.3701L49.1362 48.5396Z" fill="#FFD21C"/>
<path d="M49.1362 48.5396L48.1492 45.5018L46.6303 45.9953L49.1362 48.5396Z" fill="#FFD21C"/>
<path d="M47.2539 42.7615L46.2669 45.7992L47.7858 46.2928L47.2539 42.7615Z" fill="#FFD21C"/>
<path d="M47.2539 42.7615L48.2409 45.7992L46.7221 46.2928L47.2539 42.7615Z" fill="#FFD21C"/>
<path d="M50.293 44.9685L47.0989 44.9685L47.0989 46.5656L50.293 44.9685Z" fill="#FFD21C"/>
<path d="M50.293 44.9685L47.7089 46.8459L46.7702 45.5539L50.293 44.9685Z" fill="#FFD21C"/>
<path d="M32.784 61V55.4H34.312C34.792 55.4 35.1973 55.48 35.528 55.64C35.8613 55.8 36.1293 56.0147 36.332 56.284C36.5347 56.5507 36.6813 56.8507 36.772 57.184C36.8653 57.5147 36.912 57.8533 36.912 58.2C36.912 58.5227 36.8693 58.848 36.784 59.176C36.6987 59.504 36.556 59.8067 36.356 60.084C36.1587 60.3587 35.8907 60.58 35.552 60.748C35.2133 60.916 34.7893 61 34.28 61H32.784ZM33.48 60.352H34.368C34.7173 60.352 35.008 60.2893 35.24 60.164C35.4747 60.036 35.6613 59.868 35.8 59.66C35.9413 59.4493 36.0413 59.2173 36.1 58.964C36.1613 58.708 36.192 58.4533 36.192 58.2C36.192 57.928 36.1587 57.664 36.092 57.408C36.028 57.1493 35.9253 56.9173 35.784 56.712C35.6453 56.5067 35.4667 56.344 35.248 56.224C35.0293 56.1013 34.7653 56.04 34.456 56.04H33.48V60.352ZM38.1981 61V55.4H38.8941V58.144L41.0781 55.4H41.8621L40.3181 57.336L42.3181 61H41.5101L39.8461 57.92L38.8941 59.088V61H38.1981Z" fill="url(#paint1_linear_47_44)"/>
<defs>
<radialGradient id="paint0_radial_47_44" cx="0" cy="0" r="1" gradientUnits="userSpaceOnUse" gradientTransform="translate(-12.9353 70) rotate(-25.9194) scale(160.144 2134.66)">
<stop offset="0.0711947" stop-color="#0093DC" stop-opacity="0.4"/>
<stop offset="0.262958" stop-color="#00A5F7" stop-opacity="0.88"/>
<stop offset="0.486767" stop-color="#00AAFF"/>
<stop offset="0.594333" stop-color="#00A7FA" stop-opacity="0.89"/>
<stop offset="1" stop-color="#0093DC" stop-opacity="0.4"/>
</radialGradient>
<linearGradient id="paint1_linear_47_44" x1="34.7448" y1="42.2525" x2="47.391" y2="45.2072" gradientUnits="userSpaceOnUse">
<stop stop-color="#050505"/>
<stop offset="0.16" stop-color="#050505" stop-opacity="0.7"/>
<stop offset="0.28" stop-color="#050505"/>
<stop offset="0.49" stop-color="#060606"/>
<stop offset="0.63" stop-color="#080808" stop-opacity="0.69"/>
<stop offset="0.8" stop-color="#080808"/>
<stop offset="1" stop-color="#080808"/>
</linearGradient>
</defs>
</svg>
